<svg width="22" height="21" viewBox="0 0 22 21" fill="none" xmlns="http://www.w3.org/2000/svg">
<g clip-path="url(#clip0_25_773)">
<path d="M15.3 12C15.3 14.5 13.3 16.5 10.8 16.5C8.3 16.5 6.3 14.5 6.3 12C6.3 9.5 8.3 7.5 10.8 7.5C13.3 7.5 15.3 9.5 15.3 12Z" stroke="white" stroke-width="1.5" stroke-miterlimit="10"/>
<path d="M9.9 2V3.7H3.5V2C3.5 1.3 4.1 0.699997 4.8 0.699997H8.7C9.3 0.799997 9.9 1.3 9.9 2Z" stroke="white" stroke-width="1.5" stroke-miterlimit="10"/>
<path d="M15.3 12C15.3 14.5 13.3 16.5 10.8 16.5C8.3 16.5 6.3 14.5 6.3 12C6.3 9.5 8.3 7.5 10.8 7.5C13.2 7.5 15.3 9.5 15.3 12Z" stroke="white" stroke-width="1.5" stroke-miterlimit="10"/>
<path d="M19.8 20.3H1.8C1.2 20.3 0.800003 19.9 0.800003 19.3V4.7C0.800003 4.1 1.2 3.7 1.8 3.7H19.8C20.4 3.7 20.8 4.1 20.8 4.7V19.3C20.8 19.8 20.3 20.3 19.8 20.3Z" stroke="white" stroke-width="1.5" stroke-miterlimit="10"/>
</g>
<defs>
<clipPath id="clip0_25_773">
<rect width="21.5" height="21" fill="white"/>
</clipPath>
</defs>
</svg>
