<svg width="19" height="22" viewBox="0 0 19 22" fill="none" xmlns="http://www.w3.org/2000/svg">
<g clip-path="url(#clip0_26_2)">
<path d="M15.6 16.9H3.2C1.2 16.9 -0.0999995 14.7 0.900001 12.9C2.4 11.5 3.4 9.60001 3.9 7.70001L4.8 4.30001C5.3 2.20001 7.2 0.700012 9.4 0.700012C11.6 0.700012 13.4 2.20001 14 4.30001L14.9 7.70001C15.4 9.70001 16.5 11.5 17.9 13C18.9 14.7 17.6 16.9 15.6 16.9Z" stroke="white" stroke-width="1.1863" stroke-miterlimit="10"/>
<path d="M11.5 18.7C11.5 19.8 10.6 20.8 9.4 20.8C8.2 20.8 7.3 19.9 7.3 18.7H11.5Z" stroke="white" stroke-miterlimit="10"/>
</g>
<defs>
<clipPath id="clip0_26_2">
<rect width="18.9" height="21.2" fill="white"/>
</clipPath>
</defs>
</svg>
