<svg width="20" height="18" viewBox="0 0 20 18" fill="none" xmlns="http://www.w3.org/2000/svg">
<path d="M18.8442 5.1778C18.9873 5.05369 19.048 4.85934 19.001 4.67582C18.9539 4.4923 18.8072 4.35114 18.622 4.31122L16.6923 3.89536L16.6887 3.89455L15.1257 3.54536L15.1257 3.54531L15.1183 3.54377L14.2377 3.361L11.1237 2.67827L11.1237 2.67826L11.121 2.67767L9.87425 2.41171L9.87098 2.411L8.89092 2.19505L8.89092 2.19504L8.88875 2.19457L5.48924 1.46134L5.48875 1.46124L1.10591 0.511345C0.870057 0.460229 0.631353 0.584865 0.538496 0.80761C0.445639 1.03036 0.52513 1.28764 0.72745 1.41919L5.10932 4.26823L5.11078 4.26918L6.559 5.21802L6.55932 5.21823L7.09234 5.56802L7.09233 5.56803L7.0954 5.57002L9.49319 7.11858L9.4954 7.12002L10.7432 7.93525L10.7442 7.93589L12.4079 9.0173L12.4108 9.01922L13.2412 9.5673C13.4305 9.69224 13.6802 9.67411 13.8495 9.52315L14.4635 8.97551L18.8442 5.1778Z" fill="white" stroke="#6F269E" stroke-miterlimit="10" stroke-linecap="round" stroke-linejoin="round"/>
<path d="M13.7547 16.5266C13.8965 16.6909 14.1279 16.745 14.3278 16.6606C14.5277 16.5762 14.6503 16.3726 14.6314 16.1564L14.0148 9.10643C14.0015 8.9544 13.9195 8.81676 13.7921 8.73269L12.9588 8.18269L12.9588 8.18268L12.9558 8.18078L11.2901 7.09808L11.2892 7.09744L10.0401 6.28142L10.0401 6.28141L10.0379 6.27998L7.64099 4.73198L7.63949 4.73099L7.10766 4.38198L7.10735 4.38177L5.65735 3.43177L5.65588 3.43081L1.27255 0.580815C1.05223 0.437568 0.758629 0.489316 0.600562 0.699252C0.442495 0.909189 0.473918 1.20566 0.67248 1.3778L5.05439 5.17656L5.05581 5.1778L6.50439 6.44322L6.50438 6.44323L6.50652 6.44508L9.43843 8.97718L9.43986 8.97841L11.1862 10.4981L10.0569 11.4712C9.84888 11.6505 9.82438 11.9641 10.0021 12.1735L10.4687 12.7235L10.4687 12.7235L10.4727 12.7281L11.1381 13.4933L11.1394 13.4948L13.7547 16.5266Z" fill="white" stroke="#6F269E" stroke-miterlimit="10" stroke-linecap="round" stroke-linejoin="round"/>
<path d="M14.1333 16.2L11.95 10.5" stroke="#6F269E" stroke-miterlimit="10" stroke-linecap="round" stroke-linejoin="round"/>
<path d="M12.2764 10.8788C12.3863 10.7841 12.4496 10.6463 12.45 10.5012C12.4503 10.3561 12.3877 10.2181 12.2782 10.1228L10.0949 8.22282L10.0935 8.22159L7.16228 5.69011L7.16118 5.68915L5.71228 4.42344L5.71085 4.4222L1.32752 0.622203C1.16011 0.477075 0.917163 0.459422 0.730535 0.578825C0.543907 0.698228 0.458113 0.926211 0.519718 1.13903L1.61943 4.93805L1.61972 4.93903L2.70249 8.73708L2.70249 8.73708L2.70305 8.73903L3.43638 11.2724L3.80218 12.536L3.80305 12.539L4.01884 13.3026L4.01883 13.3026L4.01994 13.3065L4.90327 16.3398C4.95093 16.5035 5.07869 16.6316 5.24222 16.6797C5.40574 16.7278 5.58252 16.6893 5.71121 16.5775L8.62681 14.0451L8.62787 14.0442L10.0935 12.7784L10.0935 12.7785L10.0995 12.7731L10.713 12.226L12.2764 10.8788Z" fill="white" stroke="#6F269E" stroke-miterlimit="10" stroke-linecap="round" stroke-linejoin="round"/>
</svg>
